<svg xmlns="http://www.w3.org/2000/svg" xmlns:xlink="http://www.w3.org/1999/xlink" width="366" zoomAndPan="magnify" viewBox="0 0 274.5 274.5" height="366" preserveAspectRatio="xMidYMid meet" version="1.0"><defs><clipPath id="7271ae83fa"><path d="M 52 196 L 222 196 L 222 247 L 52 247 Z M 52 196 " clip-rule="nonzero"/></clipPath><clipPath id="4c2574e042"><path d="M 221.699219 217.785156 C 220.191406 218.945312 218.664062 220.074219 217.109375 221.167969 C 215.558594 222.265625 213.984375 223.328125 212.390625 224.359375 C 210.792969 225.390625 209.175781 226.386719 207.539062 227.351562 C 205.902344 228.316406 204.246094 229.246094 202.570312 230.140625 C 200.894531 231.039062 199.203125 231.898438 197.492188 232.726562 C 195.78125 233.550781 194.050781 234.339844 192.308594 235.097656 C 190.566406 235.851562 188.808594 236.570312 187.035156 237.25 C 185.261719 237.933594 183.472656 238.578125 181.671875 239.1875 C 179.875 239.792969 178.0625 240.367188 176.238281 240.898438 C 174.414062 241.433594 172.582031 241.929688 170.738281 242.386719 C 168.894531 242.84375 167.039062 243.261719 165.179688 243.644531 C 163.316406 244.023438 161.449219 244.367188 159.574219 244.671875 C 157.699219 244.976562 155.816406 245.242188 153.929688 245.46875 C 152.042969 245.695312 150.152344 245.882812 148.257812 246.03125 C 146.367188 246.179688 144.46875 246.289062 142.570312 246.355469 C 140.671875 246.425781 138.773438 246.457031 136.871094 246.449219 C 134.972656 246.441406 133.074219 246.394531 131.175781 246.308594 C 129.277344 246.21875 127.382812 246.09375 125.488281 245.929688 C 123.597656 245.765625 121.707031 245.558594 119.824219 245.316406 C 117.9375 245.074219 116.058594 244.792969 114.1875 244.472656 C 112.316406 244.152344 110.449219 243.792969 108.589844 243.394531 C 106.734375 242.996094 104.886719 242.5625 103.046875 242.085938 C 101.203125 241.613281 99.375 241.101562 97.558594 240.550781 C 95.738281 240 93.929688 239.414062 92.136719 238.789062 C 90.34375 238.167969 88.5625 237.507812 86.792969 236.808594 C 85.027344 236.109375 83.273438 235.375 81.539062 234.605469 C 79.800781 233.835938 78.082031 233.03125 76.375 232.191406 C 74.671875 231.347656 72.988281 230.472656 71.320312 229.5625 C 69.652344 228.652344 68.003906 227.707031 66.375 226.730469 C 64.746094 225.75 63.140625 224.738281 61.554688 223.691406 C 59.964844 222.648438 58.402344 221.570312 56.859375 220.460938 C 55.316406 219.351562 53.796875 218.210938 52.304688 217.039062 L 88.699219 199.976562 C 90.433594 199.160156 92.09375 198.207031 93.671875 197.121094 C 94.152344 196.789062 94.628906 196.445312 95.085938 196.085938 C 112.699219 208.625 136.738281 216.527344 157.53125 207.171875 C 162.484375 204.929688 167.03125 201.308594 169.722656 196.65625 Z M 221.699219 217.785156 " clip-rule="nonzero"/></clipPath><linearGradient x1="69.930007" gradientTransform="matrix(0.747942, 0, 0, 0.747942, 0, 0.00000998182)" y1="295.82999" x2="296.409997" gradientUnits="userSpaceOnUse" y2="295.82999" id="0640280cc0"><stop stop-opacity="1" stop-color="rgb(8.599854%, 14.099121%, 24.699402%)" offset="0"/><stop stop-opacity="1" stop-color="rgb(8.724976%, 14.227295%, 24.873352%)" offset="0.0078125"/><stop stop-opacity="1" stop-color="rgb(8.97522%, 14.485168%, 25.222778%)" offset="0.015625"/><stop stop-opacity="1" stop-color="rgb(9.22699%, 14.743042%, 25.572205%)" offset="0.0234375"/><stop stop-opacity="1" stop-color="rgb(9.47876%, 15.000916%, 25.920105%)" offset="0.03125"/><stop stop-opacity="1" stop-color="rgb(9.73053%, 15.258789%, 26.269531%)" offset="0.0390625"/><stop stop-opacity="1" stop-color="rgb(9.9823%, 15.516663%, 26.618958%)" offset="0.046875"/><stop stop-opacity="1" stop-color="rgb(10.23407%, 15.774536%, 26.968384%)" offset="0.0546875"/><stop stop-opacity="1" stop-color="rgb(10.48584%, 16.03241%, 27.31781%)" offset="0.0625"/><stop stop-opacity="1" stop-color="rgb(10.73761%, 16.290283%, 27.667236%)" offset="0.0703125"/><stop stop-opacity="1" stop-color="rgb(10.987854%, 16.548157%, 28.016663%)" offset="0.078125"/><stop stop-opacity="1" stop-color="rgb(11.239624%, 16.80603%, 28.366089%)" offset="0.0859375"/><stop stop-opacity="1" stop-color="rgb(11.491394%, 17.063904%, 28.713989%)" offset="0.09375"/><stop stop-opacity="1" stop-color="rgb(11.743164%, 17.321777%, 29.063416%)" offset="0.101563"/><stop stop-opacity="1" stop-color="rgb(11.994934%, 17.579651%, 29.412842%)" offset="0.109375"/><stop stop-opacity="1" stop-color="rgb(12.246704%, 17.837524%, 29.762268%)" offset="0.117188"/><stop stop-opacity="1" stop-color="rgb(12.498474%, 18.093872%, 30.111694%)" offset="0.125"/><stop stop-opacity="1" stop-color="rgb(12.748718%, 18.351746%, 30.461121%)" offset="0.132813"/><stop stop-opacity="1" stop-color="rgb(13.000488%, 18.609619%, 30.810547%)" offset="0.140625"/><stop stop-opacity="1" stop-color="rgb(13.252258%, 18.867493%, 31.158447%)" offset="0.148438"/><stop stop-opacity="1" stop-color="rgb(13.504028%, 19.125366%, 31.507874%)" offset="0.15625"/><stop stop-opacity="1" stop-color="rgb(13.755798%, 19.38324%, 31.8573%)" offset="0.164063"/><stop stop-opacity="1" stop-color="rgb(14.007568%, 19.641113%, 32.206726%)" offset="0.171875"/><stop stop-opacity="1" stop-color="rgb(14.259338%, 19.898987%, 32.556152%)" offset="0.179688"/><stop stop-opacity="1" stop-color="rgb(14.509583%, 20.15686%, 32.905579%)" offset="0.1875"/><stop stop-opacity="1" stop-color="rgb(14.761353%, 20.414734%, 33.255005%)" offset="0.195312"/><stop stop-opacity="1" stop-color="rgb(15.013123%, 20.672607%, 33.602905%)" offset="0.203125"/><stop stop-opacity="1" stop-color="rgb(15.264893%, 20.930481%, 33.952332%)" offset="0.210938"/><stop stop-opacity="1" stop-color="rgb(15.516663%, 21.188354%, 34.301758%)" offset="0.21875"/><stop stop-opacity="1" stop-color="rgb(15.768433%, 21.446228%, 34.651184%)" offset="0.226563"/><stop stop-opacity="1" stop-color="rgb(16.020203%, 21.704102%, 35.00061%)" offset="0.234375"/><stop stop-opacity="1" stop-color="rgb(16.271973%, 21.961975%, 35.350037%)" offset="0.242188"/><stop stop-opacity="1" stop-color="rgb(16.522217%, 22.219849%, 35.699463%)" offset="0.25"/><stop stop-opacity="1" stop-color="rgb(16.773987%, 22.477722%, 36.048889%)" offset="0.257812"/><stop stop-opacity="1" stop-color="rgb(17.025757%, 22.735596%, 36.39679%)" offset="0.265625"/><stop stop-opacity="1" stop-color="rgb(17.277527%, 22.993469%, 36.746216%)" offset="0.273438"/><stop stop-opacity="1" stop-color="rgb(17.529297%, 23.251343%, 37.095642%)" offset="0.28125"/><stop stop-opacity="1" stop-color="rgb(17.781067%, 23.509216%, 37.445068%)" offset="0.289062"/><stop stop-opacity="1" stop-color="rgb(18.032837%, 23.76709%, 37.794495%)" offset="0.296875"/><stop stop-opacity="1" stop-color="rgb(18.283081%, 24.024963%, 38.143921%)" offset="0.304688"/><stop stop-opacity="1" stop-color="rgb(18.534851%, 24.282837%, 38.493347%)" offset="0.3125"/><stop stop-opacity="1" stop-color="rgb(18.786621%, 24.539185%, 38.841248%)" offset="0.320313"/><stop stop-opacity="1" stop-color="rgb(19.038391%, 24.797058%, 39.190674%)" offset="0.328125"/><stop stop-opacity="1" stop-color="rgb(19.290161%, 25.054932%, 39.5401%)" offset="0.335938"/><stop stop-opacity="1" stop-color="rgb(19.541931%, 25.312805%, 39.889526%)" offset="0.34375"/><stop stop-opacity="1" stop-color="rgb(19.793701%, 25.570679%, 40.238953%)" offset="0.351563"/><stop stop-opacity="1" stop-color="rgb(20.043945%, 25.828552%, 40.588379%)" offset="0.359375"/><stop stop-opacity="1" stop-color="rgb(20.295715%, 26.086426%, 40.937805%)" offset="0.367188"/><stop stop-opacity="1" stop-color="rgb(20.547485%, 26.344299%, 41.287231%)" offset="0.375"/><stop stop-opacity="1" stop-color="rgb(20.799255%, 26.602173%, 41.635132%)" offset="0.382812"/><stop stop-opacity="1" stop-color="rgb(21.051025%, 26.860046%, 41.984558%)" offset="0.390625"/><stop stop-opacity="1" stop-color="rgb(21.302795%, 27.11792%, 42.333984%)" offset="0.398437"/><stop stop-opacity="1" stop-color="rgb(21.554565%, 27.375793%, 42.683411%)" offset="0.40625"/><stop stop-opacity="1" stop-color="rgb(21.806335%, 27.633667%, 43.032837%)" offset="0.414062"/><stop stop-opacity="1" stop-color="rgb(22.05658%, 27.891541%, 43.382263%)" offset="0.421875"/><stop stop-opacity="1" stop-color="rgb(22.30835%, 28.149414%, 43.731689%)" offset="0.429687"/><stop stop-opacity="1" stop-color="rgb(22.56012%, 28.407288%, 44.07959%)" offset="0.4375"/><stop stop-opacity="1" stop-color="rgb(22.81189%, 28.665161%, 44.429016%)" offset="0.445312"/><stop stop-opacity="1" stop-color="rgb(23.06366%, 28.923035%, 44.778442%)" offset="0.453125"/><stop stop-opacity="1" stop-color="rgb(23.31543%, 29.180908%, 45.127869%)" offset="0.460938"/><stop stop-opacity="1" stop-color="rgb(23.5672%, 29.438782%, 45.477295%)" offset="0.46875"/><stop stop-opacity="1" stop-color="rgb(23.817444%, 29.696655%, 45.826721%)" offset="0.476562"/><stop stop-opacity="1" stop-color="rgb(24.069214%, 29.954529%, 46.176147%)" offset="0.484375"/><stop stop-opacity="1" stop-color="rgb(24.320984%, 30.212402%, 46.524048%)" offset="0.492188"/><stop stop-opacity="1" stop-color="rgb(24.572754%, 30.470276%, 46.873474%)" offset="0.5"/><stop stop-opacity="1" stop-color="rgb(24.824524%, 30.728149%, 47.2229%)" offset="0.507812"/><stop stop-opacity="1" stop-color="rgb(25.076294%, 30.984497%, 47.572327%)" offset="0.515625"/><stop stop-opacity="1" stop-color="rgb(25.328064%, 31.242371%, 47.921753%)" offset="0.523437"/><stop stop-opacity="1" stop-color="rgb(25.578308%, 31.500244%, 48.271179%)" offset="0.53125"/><stop stop-opacity="1" stop-color="rgb(25.830078%, 31.758118%, 48.620605%)" offset="0.539062"/><stop stop-opacity="1" stop-color="rgb(26.081848%, 32.015991%, 48.970032%)" offset="0.546875"/><stop stop-opacity="1" stop-color="rgb(26.333618%, 32.273865%, 49.317932%)" offset="0.554687"/><stop stop-opacity="1" stop-color="rgb(26.585388%, 32.531738%, 49.667358%)" offset="0.5625"/><stop stop-opacity="1" stop-color="rgb(26.837158%, 32.789612%, 50.016785%)" offset="0.570312"/><stop stop-opacity="1" stop-color="rgb(27.088928%, 33.047485%, 50.366211%)" offset="0.578125"/><stop stop-opacity="1" stop-color="rgb(27.340698%, 33.305359%, 50.715637%)" offset="0.585937"/><stop stop-opacity="1" stop-color="rgb(27.590942%, 33.563232%, 51.065063%)" offset="0.59375"/><stop stop-opacity="1" stop-color="rgb(27.842712%, 33.821106%, 51.41449%)" offset="0.601562"/><stop stop-opacity="1" stop-color="rgb(28.094482%, 34.078979%, 51.76239%)" offset="0.609375"/><stop stop-opacity="1" stop-color="rgb(28.346252%, 34.336853%, 52.111816%)" offset="0.617187"/><stop stop-opacity="1" stop-color="rgb(28.598022%, 34.594727%, 52.461243%)" offset="0.625"/><stop stop-opacity="1" stop-color="rgb(28.849792%, 34.8526%, 52.810669%)" offset="0.632812"/><stop stop-opacity="1" stop-color="rgb(29.101562%, 35.110474%, 53.160095%)" offset="0.640625"/><stop stop-opacity="1" stop-color="rgb(29.351807%, 35.368347%, 53.509521%)" offset="0.648438"/><stop stop-opacity="1" stop-color="rgb(29.603577%, 35.626221%, 53.858948%)" offset="0.65625"/><stop stop-opacity="1" stop-color="rgb(29.855347%, 35.884094%, 54.206848%)" offset="0.664062"/><stop stop-opacity="1" stop-color="rgb(30.107117%, 36.141968%, 54.556274%)" offset="0.671875"/><stop stop-opacity="1" stop-color="rgb(30.358887%, 36.399841%, 54.905701%)" offset="0.679688"/><stop stop-opacity="1" stop-color="rgb(30.610657%, 36.657715%, 55.255127%)" offset="0.6875"/><stop stop-opacity="1" stop-color="rgb(30.862427%, 36.915588%, 55.604553%)" offset="0.695312"/><stop stop-opacity="1" stop-color="rgb(31.112671%, 37.173462%, 55.953979%)" offset="0.703125"/><stop stop-opacity="1" stop-color="rgb(31.364441%, 37.42981%, 56.303406%)" offset="0.710938"/><stop stop-opacity="1" stop-color="rgb(31.616211%, 37.687683%, 56.652832%)" offset="0.71875"/><stop stop-opacity="1" stop-color="rgb(31.867981%, 37.945557%, 57.000732%)" offset="0.726562"/><stop stop-opacity="1" stop-color="rgb(32.119751%, 38.20343%, 57.350159%)" offset="0.734375"/><stop stop-opacity="1" stop-color="rgb(32.371521%, 38.461304%, 57.699585%)" offset="0.742188"/><stop stop-opacity="1" stop-color="rgb(32.623291%, 38.719177%, 58.049011%)" offset="0.75"/><stop stop-opacity="1" stop-color="rgb(32.875061%, 38.977051%, 58.398438%)" offset="0.757812"/><stop stop-opacity="1" stop-color="rgb(33.125305%, 39.234924%, 58.747864%)" offset="0.765625"/><stop stop-opacity="1" stop-color="rgb(33.377075%, 39.492798%, 59.09729%)" offset="0.773438"/><stop stop-opacity="1" stop-color="rgb(33.628845%, 39.750671%, 59.44519%)" offset="0.78125"/><stop stop-opacity="1" stop-color="rgb(33.880615%, 40.008545%, 59.794617%)" offset="0.789062"/><stop stop-opacity="1" stop-color="rgb(34.132385%, 40.266418%, 60.144043%)" offset="0.796875"/><stop stop-opacity="1" stop-color="rgb(34.384155%, 40.524292%, 60.493469%)" offset="0.804688"/><stop stop-opacity="1" stop-color="rgb(34.635925%, 40.782166%, 60.842896%)" offset="0.8125"/><stop stop-opacity="1" stop-color="rgb(34.886169%, 41.040039%, 61.192322%)" offset="0.820312"/><stop stop-opacity="1" stop-color="rgb(35.137939%, 41.297913%, 61.541748%)" offset="0.828125"/><stop stop-opacity="1" stop-color="rgb(35.389709%, 41.555786%, 61.889648%)" offset="0.835938"/><stop stop-opacity="1" stop-color="rgb(35.641479%, 41.81366%, 62.239075%)" offset="0.84375"/><stop stop-opacity="1" stop-color="rgb(35.89325%, 42.071533%, 62.588501%)" offset="0.851562"/><stop stop-opacity="1" stop-color="rgb(36.14502%, 42.329407%, 62.937927%)" offset="0.859375"/><stop stop-opacity="1" stop-color="rgb(36.39679%, 42.58728%, 63.287354%)" offset="0.867188"/><stop stop-opacity="1" stop-color="rgb(36.647034%, 42.845154%, 63.63678%)" offset="0.875"/><stop stop-opacity="1" stop-color="rgb(36.898804%, 43.103027%, 63.986206%)" offset="0.882813"/><stop stop-opacity="1" stop-color="rgb(37.150574%, 43.360901%, 64.335632%)" offset="0.890625"/><stop stop-opacity="1" stop-color="rgb(37.402344%, 43.618774%, 64.683533%)" offset="0.898438"/><stop stop-opacity="1" stop-color="rgb(37.654114%, 43.875122%, 65.032959%)" offset="0.90625"/><stop stop-opacity="1" stop-color="rgb(37.905884%, 44.132996%, 65.382385%)" offset="0.914063"/><stop stop-opacity="1" stop-color="rgb(38.157654%, 44.390869%, 65.731812%)" offset="0.921875"/><stop stop-opacity="1" stop-color="rgb(38.409424%, 44.648743%, 66.081238%)" offset="0.929688"/><stop stop-opacity="1" stop-color="rgb(38.659668%, 44.906616%, 66.430664%)" offset="0.9375"/><stop stop-opacity="1" stop-color="rgb(38.911438%, 45.16449%, 66.78009%)" offset="0.945313"/><stop stop-opacity="1" stop-color="rgb(39.163208%, 45.422363%, 67.127991%)" offset="0.953125"/><stop stop-opacity="1" stop-color="rgb(39.414978%, 45.680237%, 67.477417%)" offset="0.960938"/><stop stop-opacity="1" stop-color="rgb(39.666748%, 45.93811%, 67.826843%)" offset="0.96875"/><stop stop-opacity="1" stop-color="rgb(39.918518%, 46.195984%, 68.17627%)" offset="0.976563"/><stop stop-opacity="1" stop-color="rgb(40.170288%, 46.453857%, 68.525696%)" offset="0.984375"/><stop stop-opacity="1" stop-color="rgb(40.420532%, 46.711731%, 68.875122%)" offset="0.992188"/><stop stop-opacity="1" stop-color="rgb(40.672302%, 46.969604%, 69.224548%)" offset="1"/></linearGradient></defs><path fill="#f2a196" d="M 221.699219 217.785156 C 220.191406 218.945312 218.664062 220.074219 217.109375 221.167969 C 215.558594 222.265625 213.984375 223.328125 212.390625 224.359375 C 210.792969 225.390625 209.175781 226.386719 207.539062 227.351562 C 205.902344 228.316406 204.246094 229.246094 202.570312 230.140625 C 200.894531 231.039062 199.203125 231.898438 197.492188 232.726562 C 195.78125 233.550781 194.050781 234.339844 192.308594 235.097656 C 190.566406 235.851562 188.808594 236.570312 187.035156 237.25 C 185.261719 237.933594 183.472656 238.578125 181.671875 239.1875 C 179.875 239.792969 178.0625 240.367188 176.238281 240.898438 C 174.414062 241.433594 172.582031 241.929688 170.738281 242.386719 C 168.894531 242.84375 167.039062 243.261719 165.179688 243.644531 C 163.316406 244.023438 161.449219 244.367188 159.574219 244.671875 C 157.699219 244.976562 155.816406 245.242188 153.929688 245.46875 C 152.042969 245.695312 150.152344 245.882812 148.257812 246.03125 C 146.367188 246.179688 144.46875 246.289062 142.570312 246.355469 C 140.671875 246.425781 138.773438 246.457031 136.871094 246.449219 C 134.972656 246.441406 133.074219 246.394531 131.175781 246.308594 C 129.277344 246.21875 127.382812 246.09375 125.488281 245.929688 C 123.597656 245.765625 121.707031 245.558594 119.824219 245.316406 C 117.9375 245.074219 116.058594 244.792969 114.1875 244.472656 C 112.316406 244.152344 110.449219 243.792969 108.589844 243.394531 C 106.734375 242.996094 104.886719 242.5625 103.046875 242.085938 C 101.203125 241.613281 99.375 241.101562 97.558594 240.550781 C 95.738281 240 93.929688 239.414062 92.136719 238.789062 C 90.34375 238.167969 88.5625 237.507812 86.792969 236.808594 C 85.027344 236.109375 83.273438 235.375 81.539062 234.605469 C 79.800781 233.835938 78.082031 233.03125 76.375 232.191406 C 74.671875 231.347656 72.988281 230.472656 71.320312 229.5625 C 69.652344 228.652344 68.003906 227.707031 66.375 226.730469 C 64.746094 225.75 63.140625 224.738281 61.554688 223.691406 C 59.964844 222.648438 58.402344 221.570312 56.859375 220.460938 C 55.316406 219.351562 53.796875 218.210938 52.304688 217.039062 L 88.699219 199.976562 C 90.433594 199.160156 92.09375 198.207031 93.671875 197.121094 C 94.152344 196.789062 94.628906 196.445312 95.085938 196.085938 C 99.09375 193.019531 102.28125 189.257812 104.644531 184.800781 C 106.425781 181.390625 107.582031 177.78125 108.113281 173.972656 C 108.480469 171.515625 108.664062 169.042969 108.667969 166.558594 C 108.667969 163.972656 108.601562 161.382812 108.511719 158.796875 C 108.460938 157.105469 108.414062 155.40625 108.390625 153.71875 C 108.363281 151.347656 108.335938 148.976562 108.316406 146.605469 L 109.8125 147.351562 L 113.703125 149.363281 L 115.503906 149.671875 L 136.355469 153.214844 L 159.632812 157.179688 L 160.335938 181.113281 L 160.566406 188.9375 L 160.679688 192.738281 L 160.679688 192.96875 L 161.429688 193.28125 L 169.707031 196.648438 Z M 221.699219 217.785156 " fill-opacity="1" fill-rule="nonzero"/><path fill="#e88870" d="M 160.671875 192.96875 C 159.386719 193.191406 158.101562 193.199219 156.8125 193 C 155.523438 192.800781 154.300781 192.402344 153.140625 191.800781 L 108.511719 155.324219 C 108.460938 153.632812 108.414062 155.398438 108.390625 153.710938 C 108.363281 151.339844 108.335938 148.96875 108.316406 146.597656 L 109.8125 147.34375 L 113.703125 149.355469 L 115.503906 149.664062 L 136.355469 153.207031 L 159.632812 157.171875 L 160.335938 181.105469 L 160.566406 188.929688 L 160.679688 192.730469 L 160.679688 192.96875 Z M 160.671875 192.96875 " fill-opacity="1" fill-rule="nonzero"/><g clip-path="url(#7271ae83fa)"><g clip-path="url(#4c2574e042)"><path fill="url(#0640280cc0)" d="M 52.304688 196.085938 L 52.304688 246.457031 L 221.699219 246.457031 L 221.699219 196.085938 Z M 52.304688 196.085938 " fill-rule="nonzero"/></g></g><path fill="#845161" d="M 208.308594 67.988281 C 208.242188 68.429688 208.160156 68.863281 208.0625 69.296875 C 207.539062 71.53125 206.714844 73.648438 205.585938 75.648438 L 205.527344 75.75 C 205.101562 76.5 204.644531 77.246094 204.152344 77.996094 C 202.839844 79.917969 201.414062 81.75 199.871094 83.492188 L 198.953125 84.515625 C 198.332031 85.214844 197.703125 85.894531 197.074219 86.566406 C 200.402344 85.820312 203.628906 88.921875 204.21875 92.273438 C 204.808594 95.625 203.46875 99.003906 201.816406 101.996094 C 198.921875 107.292969 194.75 110.816406 191.078125 115.414062 C 188.324219 118.839844 186.796875 122.894531 183.800781 126.171875 L 183.574219 126.417969 C 175.652344 134.734375 163.148438 136.679688 152.738281 140.230469 C 148.996094 141.519531 108.445312 153.035156 108.445312 155.550781 C 108.445312 155.003906 104.472656 151.0625 99.46875 146.265625 C 81.519531 129.222656 75.617188 102.886719 86.296875 80.300781 C 97.777344 55.992188 123.851562 38.644531 148.683594 30.3125 C 156.445312 27.710938 165.257812 25.960938 172.617188 29.566406 C 179.976562 33.171875 183.640625 44.351562 177.539062 49.8125 C 179.457031 48.359375 181.574219 47.300781 183.882812 46.628906 C 186.195312 45.957031 188.550781 45.71875 190.949219 45.917969 C 193.164062 46.054688 195.285156 46.578125 197.308594 47.488281 C 199.335938 48.402344 201.132812 49.636719 202.707031 51.203125 C 205.246094 53.753906 206.976562 56.765625 207.90625 60.238281 C 208.589844 62.792969 208.722656 65.375 208.308594 67.988281 Z M 208.308594 67.988281 " fill-opacity="1" fill-rule="nonzero"/><path fill="#69303a" d="M 208.308594 67.988281 C 208.242188 68.429688 208.160156 68.863281 208.0625 69.296875 C 207.996094 69.425781 207.929688 69.558594 207.859375 69.707031 C 207.015625 71.636719 206.625 73.71875 205.617188 75.648438 L 205.558594 75.75 C 205.128906 76.5 204.675781 77.246094 204.179688 77.996094 C 202.882812 79.925781 201.457031 81.757812 199.902344 83.492188 L 198.953125 84.515625 C 198.332031 85.214844 197.703125 85.894531 197.074219 86.566406 C 200.402344 85.820312 203.628906 88.921875 204.21875 92.273438 C 204.808594 95.625 203.46875 99.003906 201.816406 101.996094 C 198.921875 107.292969 194.75 110.816406 191.078125 115.414062 C 188.324219 118.839844 186.796875 122.894531 183.800781 126.171875 C 182.058594 124.101562 180.644531 121.824219 179.558594 119.347656 C 178.472656 116.871094 177.753906 114.292969 177.410156 111.609375 C 176.183594 101.691406 176.933594 90.882812 176.597656 80.84375 C 176.386719 74.53125 174.351562 73.367188 178.136719 68.257812 C 181.195312 64.488281 184.683594 61.171875 188.609375 58.316406 C 191.660156 56.304688 195.585938 55.992188 199.230469 56.507812 C 202.464844 56.949219 205.351562 58.195312 207.890625 60.246094 C 208.578125 62.796875 208.71875 65.378906 208.308594 67.988281 Z M 208.308594 67.988281 " fill-opacity="1" fill-rule="nonzero"/><path fill="#f2a196" d="M 113.671875 125.652344 C 113.671875 126.488281 113.589844 127.316406 113.429688 128.132812 C 113.265625 128.953125 113.023438 129.75 112.703125 130.519531 C 112.382812 131.292969 111.992188 132.023438 111.527344 132.71875 C 111.066406 133.414062 110.539062 134.054688 109.949219 134.644531 C 109.359375 135.234375 108.714844 135.761719 108.019531 136.226562 C 107.328125 136.691406 106.59375 137.082031 105.824219 137.402344 C 105.050781 137.722656 104.257812 137.960938 103.4375 138.125 C 102.617188 138.289062 101.792969 138.371094 100.957031 138.371094 C 100.121094 138.371094 99.296875 138.289062 98.476562 138.125 C 97.65625 137.960938 96.863281 137.722656 96.089844 137.402344 C 95.320312 137.082031 94.585938 136.691406 93.894531 136.226562 C 93.199219 135.761719 92.554688 135.234375 91.964844 134.644531 C 91.375 134.054688 90.847656 133.414062 90.386719 132.71875 C 89.921875 132.023438 89.53125 131.292969 89.210938 130.519531 C 88.890625 129.75 88.648438 128.953125 88.488281 128.132812 C 88.324219 127.316406 88.242188 126.488281 88.242188 125.652344 C 88.242188 124.820312 88.324219 123.992188 88.488281 123.171875 C 88.648438 122.355469 88.890625 121.558594 89.210938 120.789062 C 89.53125 120.015625 89.921875 119.285156 90.386719 118.589844 C 90.847656 117.894531 91.375 117.253906 91.964844 116.664062 C 92.554688 116.074219 93.199219 115.546875 93.894531 115.082031 C 94.585938 114.617188 95.320312 114.226562 96.089844 113.90625 C 96.863281 113.585938 97.65625 113.347656 98.476562 113.183594 C 99.296875 113.019531 100.121094 112.9375 100.957031 112.9375 C 101.792969 112.9375 102.617188 113.019531 103.4375 113.183594 C 104.257812 113.347656 105.050781 113.585938 105.824219 113.90625 C 106.59375 114.226562 107.328125 114.617188 108.019531 115.082031 C 108.714844 115.546875 109.359375 116.074219 109.949219 116.664062 C 110.539062 117.253906 111.066406 117.894531 111.527344 118.589844 C 111.992188 119.285156 112.382812 120.015625 112.703125 120.789062 C 113.023438 121.558594 113.265625 122.355469 113.429688 123.171875 C 113.589844 123.992188 113.671875 124.820312 113.671875 125.652344 Z M 113.671875 125.652344 " fill-opacity="1" fill-rule="nonzero"/><path fill="#e88870" d="M 116.371094 125.652344 C 116.371094 126.402344 116.300781 127.140625 116.152344 127.875 C 116.007812 128.609375 115.792969 129.320312 115.503906 130.011719 C 115.21875 130.699219 114.867188 131.355469 114.453125 131.980469 C 114.039062 132.601562 113.566406 133.175781 113.039062 133.703125 C 112.507812 134.230469 111.933594 134.703125 111.3125 135.121094 C 110.691406 135.535156 110.035156 135.886719 109.34375 136.171875 C 108.65625 136.457031 107.941406 136.671875 107.210938 136.820312 C 106.476562 136.964844 105.734375 137.039062 104.988281 137.039062 C 104.242188 137.039062 103.5 136.964844 102.769531 136.820312 C 102.035156 136.671875 101.324219 136.457031 100.632812 136.171875 C 99.941406 135.886719 99.285156 135.535156 98.664062 135.121094 C 98.042969 134.703125 97.46875 134.230469 96.9375 133.703125 C 96.410156 133.175781 95.9375 132.601562 95.523438 131.980469 C 95.109375 131.355469 94.757812 130.699219 94.472656 130.011719 C 94.183594 129.320312 93.96875 128.609375 93.824219 127.875 C 93.679688 127.140625 93.605469 126.402344 93.605469 125.652344 C 93.605469 124.90625 93.679688 124.167969 93.824219 123.433594 C 93.96875 122.699219 94.183594 121.988281 94.472656 121.296875 C 94.757812 120.605469 95.109375 119.953125 95.523438 119.328125 C 95.9375 118.707031 96.410156 118.132812 96.9375 117.605469 C 97.46875 117.074219 98.042969 116.605469 98.664062 116.1875 C 99.285156 115.773438 99.941406 115.421875 100.632812 115.136719 C 101.324219 114.851562 102.035156 114.636719 102.769531 114.488281 C 103.5 114.34375 104.242188 114.269531 104.988281 114.269531 C 105.734375 114.269531 106.476562 114.34375 107.210938 114.488281 C 107.941406 114.636719 108.65625 114.851562 109.34375 115.136719 C 110.035156 115.421875 110.691406 115.773438 111.3125 116.1875 C 111.933594 116.605469 112.507812 117.074219 113.039062 117.605469 C 113.566406 118.132812 114.039062 118.707031 114.453125 119.328125 C 114.867188 119.953125 115.21875 120.605469 115.503906 121.296875 C 115.792969 121.988281 116.007812 122.699219 116.152344 123.433594 C 116.300781 124.167969 116.371094 124.90625 116.371094 125.652344 Z M 116.371094 125.652344 " fill-opacity="1" fill-rule="nonzero"/><path fill="#f2a196" d="M 105.160156 113.6875 L 108.453125 156.320312 L 158.144531 185.355469 C 158.996094 185.671875 159.871094 185.910156 160.765625 186.066406 C 161.664062 186.222656 162.566406 186.296875 163.476562 186.285156 C 164.382812 186.277344 165.285156 186.183594 166.175781 186.007812 C 167.070312 185.832031 167.9375 185.574219 168.78125 185.238281 C 169.628906 184.902344 170.433594 184.492188 171.203125 184.003906 C 171.972656 183.519531 172.691406 182.96875 173.359375 182.351562 C 174.027344 181.734375 174.632812 181.058594 175.175781 180.328125 C 175.71875 179.601562 176.1875 178.828125 176.589844 178.011719 C 183.738281 163.367188 195.210938 140.238281 193.703125 131.636719 C 191.457031 118.921875 185.472656 114.433594 185.472656 114.433594 C 186.308594 109.449219 187.136719 104.476562 187.957031 99.519531 C 188.898438 93.902344 190.105469 88.039062 188.707031 82.394531 C 187.113281 75.917969 182.222656 73.15625 178.195312 68.316406 C 167.605469 81.960938 150.195312 89.671875 134.988281 97.488281 C 127.148438 101.554688 105.160156 113.6875 105.160156 113.6875 Z M 105.160156 113.6875 " fill-opacity="1" fill-rule="nonzero"/><path fill="#00214e" d="M 141.898438 112.042969 C 146.460938 112.042969 146.460938 119.058594 141.898438 119.09375 L 141.691406 119.09375 C 137.128906 119.09375 137.128906 112.078125 141.691406 112.042969 Z M 141.898438 112.042969 " fill-opacity="1" fill-rule="nonzero"/><path fill="#00214e" d="M 179.386719 111.003906 C 183.628906 111.039062 183.628906 117.507812 179.386719 117.546875 L 179.199219 117.546875 C 174.964844 117.546875 174.964844 111.039062 179.199219 111.003906 Z M 179.386719 111.003906 " fill-opacity="1" fill-rule="nonzero"/><path stroke-linecap="butt" transform="matrix(0.747942, 0, 0, 0.747942, 0, 0.00000998182)" fill="none" stroke-linejoin="miter" d="M 215.132132 147.091203 C 215.048569 147.441121 228.491716 183.221618 228.491716 183.221618 L 210.551852 184.088581 " stroke="#00214e" stroke-width="1" stroke-opacity="1" stroke-miterlimit="10"/><path stroke-linecap="butt" transform="matrix(0.747942, 0, 0, 0.747942, 0, 0.00000998182)" fill="none" stroke-linejoin="miter" d="M 172.650952 140.171168 C 181.978637 138.244003 191.358548 137.977647 200.780241 139.382545 " stroke="#00214e" stroke-width="1" stroke-opacity="1" stroke-miterlimit="10"/><path stroke-linecap="butt" transform="matrix(0.747942, 0, 0, 0.747942, 0, 0.00000998182)" fill="none" stroke-linejoin="miter" d="M 231.698434 140.280844 C 237.453814 138.943841 243.266643 138.541695 249.15259 139.069185 " stroke="#00214e" stroke-width="1" stroke-opacity="1" stroke-miterlimit="10"/><path fill="#ffffff" d="M 143.730469 145.175781 C 143.835938 145.011719 143.964844 144.875 144.125 144.765625 C 144.285156 144.65625 144.460938 144.582031 144.652344 144.546875 C 144.84375 144.511719 145.03125 144.515625 145.222656 144.5625 C 145.410156 144.605469 145.582031 144.683594 145.738281 144.800781 C 147.292969 145.894531 150.132812 148.210938 154.171875 149.011719 C 159.679688 150.113281 164.449219 147.90625 165.59375 149.328125 C 166.238281 150.125 165.453125 151.097656 163.949219 152.316406 C 162.359375 153.507812 160.597656 154.339844 158.671875 154.820312 C 156.742188 155.296875 154.796875 155.382812 152.835938 155.078125 C 147.539062 154.082031 143.558594 147.949219 143.558594 145.773438 C 143.566406 145.558594 143.621094 145.359375 143.730469 145.175781 Z M 143.730469 145.175781 " fill-opacity="1" fill-rule="nonzero"/></svg>