<svg xmlns="http://www.w3.org/2000/svg" xmlns:xlink="http://www.w3.org/1999/xlink" width="366" zoomAndPan="magnify" viewBox="0 0 274.5 274.5" height="366" preserveAspectRatio="xMidYMid meet" version="1.0"><defs><clipPath id="fd6ec3f0e1"><path d="M 68 52 L 193 52 L 193 208 L 68 208 Z M 68 52 " clip-rule="nonzero"/></clipPath><clipPath id="ba280cfb88"><path d="M 164.660156 188.75 C 160.410156 193.515625 155.742188 197.828125 150.65625 201.691406 C 141.601562 208.519531 134.890625 207.734375 124.367188 206.820312 C 112.140625 205.765625 100.007812 203.828125 87.816406 202.394531 C 86.265625 202.214844 84.605469 201.980469 83.46875 200.898438 C 82.542969 199.863281 81.953125 198.664062 81.707031 197.300781 C 74.492188 171.09375 70.179688 144.414062 68.765625 117.269531 C 67.417969 91.390625 80.734375 66.050781 105.855469 56.550781 C 131.921875 46.679688 165.847656 53.238281 181.300781 77.929688 C 202.984375 112.609375 191.007812 159.3125 164.660156 188.75 Z M 164.660156 188.75 " clip-rule="nonzero"/></clipPath><linearGradient x1="90.139998" gradientTransform="matrix(0.747942, 0, 0, 0.747942, 0, 0.00000998182)" y1="173.53999" x2="271.390007" gradientUnits="userSpaceOnUse" y2="173.53999" id="7e91210746"><stop stop-opacity="1" stop-color="rgb(8.599854%, 14.099121%, 24.699402%)" offset="0"/><stop stop-opacity="1" stop-color="rgb(8.712769%, 14.215088%, 24.855042%)" offset="0.015625"/><stop stop-opacity="1" stop-color="rgb(8.963013%, 14.471436%, 25.202942%)" offset="0.0234375"/><stop stop-opacity="1" stop-color="rgb(9.237671%, 14.753723%, 25.585938%)" offset="0.03125"/><stop stop-opacity="1" stop-color="rgb(9.513855%, 15.036011%, 25.967407%)" offset="0.0390625"/><stop stop-opacity="1" stop-color="rgb(9.788513%, 15.318298%, 26.350403%)" offset="0.046875"/><stop stop-opacity="1" stop-color="rgb(10.063171%, 15.59906%, 26.731873%)" offset="0.0546875"/><stop stop-opacity="1" stop-color="rgb(10.339355%, 15.881348%, 27.114868%)" offset="0.0625"/><stop stop-opacity="1" stop-color="rgb(10.614014%, 16.163635%, 27.496338%)" offset="0.0703125"/><stop stop-opacity="1" stop-color="rgb(10.890198%, 16.445923%, 27.879333%)" offset="0.078125"/><stop stop-opacity="1" stop-color="rgb(11.164856%, 16.72821%, 28.260803%)" offset="0.0859375"/><stop stop-opacity="1" stop-color="rgb(11.44104%, 17.010498%, 28.643799%)" offset="0.09375"/><stop stop-opacity="1" stop-color="rgb(11.715698%, 17.292786%, 29.025269%)" offset="0.101562"/><stop stop-opacity="1" stop-color="rgb(11.990356%, 17.575073%, 29.408264%)" offset="0.109375"/><stop stop-opacity="1" stop-color="rgb(12.266541%, 17.857361%, 29.789734%)" offset="0.117187"/><stop stop-opacity="1" stop-color="rgb(12.541199%, 18.139648%, 30.172729%)" offset="0.125"/><stop stop-opacity="1" stop-color="rgb(12.817383%, 18.421936%, 30.554199%)" offset="0.132812"/><stop stop-opacity="1" stop-color="rgb(13.092041%, 18.704224%, 30.937195%)" offset="0.140625"/><stop stop-opacity="1" stop-color="rgb(13.368225%, 18.984985%, 31.318665%)" offset="0.148438"/><stop stop-opacity="1" stop-color="rgb(13.642883%, 19.267273%, 31.70166%)" offset="0.15625"/><stop stop-opacity="1" stop-color="rgb(13.917542%, 19.549561%, 32.08313%)" offset="0.164062"/><stop stop-opacity="1" stop-color="rgb(14.193726%, 19.831848%, 32.466125%)" offset="0.171875"/><stop stop-opacity="1" stop-color="rgb(14.468384%, 20.114136%, 32.847595%)" offset="0.179687"/><stop stop-opacity="1" stop-color="rgb(14.744568%, 20.396423%, 33.229065%)" offset="0.1875"/><stop stop-opacity="1" stop-color="rgb(15.019226%, 20.678711%, 33.612061%)" offset="0.195312"/><stop stop-opacity="1" stop-color="rgb(15.29541%, 20.960999%, 33.99353%)" offset="0.203125"/><stop stop-opacity="1" stop-color="rgb(15.570068%, 21.243286%, 34.376526%)" offset="0.210937"/><stop stop-opacity="1" stop-color="rgb(15.846252%, 21.525574%, 34.757996%)" offset="0.21875"/><stop stop-opacity="1" stop-color="rgb(16.120911%, 21.807861%, 35.140991%)" offset="0.226562"/><stop stop-opacity="1" stop-color="rgb(16.395569%, 22.090149%, 35.522461%)" offset="0.234375"/><stop stop-opacity="1" stop-color="rgb(16.671753%, 22.370911%, 35.905457%)" offset="0.242188"/><stop stop-opacity="1" stop-color="rgb(16.946411%, 22.653198%, 36.286926%)" offset="0.25"/><stop stop-opacity="1" stop-color="rgb(17.222595%, 22.935486%, 36.669922%)" offset="0.257813"/><stop stop-opacity="1" stop-color="rgb(17.497253%, 23.217773%, 37.051392%)" offset="0.265625"/><stop stop-opacity="1" stop-color="rgb(17.773438%, 23.500061%, 37.434387%)" offset="0.273438"/><stop stop-opacity="1" stop-color="rgb(18.048096%, 23.782349%, 37.815857%)" offset="0.28125"/><stop stop-opacity="1" stop-color="rgb(18.322754%, 24.064636%, 38.198853%)" offset="0.289062"/><stop stop-opacity="1" stop-color="rgb(18.598938%, 24.346924%, 38.580322%)" offset="0.296875"/><stop stop-opacity="1" stop-color="rgb(18.873596%, 24.629211%, 38.963318%)" offset="0.304688"/><stop stop-opacity="1" stop-color="rgb(19.14978%, 24.911499%, 39.344788%)" offset="0.3125"/><stop stop-opacity="1" stop-color="rgb(19.424438%, 25.193787%, 39.727783%)" offset="0.320312"/><stop stop-opacity="1" stop-color="rgb(19.700623%, 25.476074%, 40.109253%)" offset="0.328125"/><stop stop-opacity="1" stop-color="rgb(19.975281%, 25.756836%, 40.492249%)" offset="0.335937"/><stop stop-opacity="1" stop-color="rgb(20.249939%, 26.039124%, 40.873718%)" offset="0.34375"/><stop stop-opacity="1" stop-color="rgb(20.526123%, 26.321411%, 41.256714%)" offset="0.351563"/><stop stop-opacity="1" stop-color="rgb(20.800781%, 26.603699%, 41.638184%)" offset="0.359375"/><stop stop-opacity="1" stop-color="rgb(21.076965%, 26.885986%, 42.019653%)" offset="0.367188"/><stop stop-opacity="1" stop-color="rgb(21.351624%, 27.168274%, 42.402649%)" offset="0.375"/><stop stop-opacity="1" stop-color="rgb(21.627808%, 27.450562%, 42.784119%)" offset="0.382812"/><stop stop-opacity="1" stop-color="rgb(21.902466%, 27.732849%, 43.167114%)" offset="0.390625"/><stop stop-opacity="1" stop-color="rgb(22.177124%, 28.015137%, 43.548584%)" offset="0.398437"/><stop stop-opacity="1" stop-color="rgb(22.453308%, 28.297424%, 43.93158%)" offset="0.40625"/><stop stop-opacity="1" stop-color="rgb(22.727966%, 28.579712%, 44.313049%)" offset="0.414062"/><stop stop-opacity="1" stop-color="rgb(23.00415%, 28.862%, 44.696045%)" offset="0.421875"/><stop stop-opacity="1" stop-color="rgb(23.278809%, 29.142761%, 45.077515%)" offset="0.429687"/><stop stop-opacity="1" stop-color="rgb(23.554993%, 29.425049%, 45.46051%)" offset="0.4375"/><stop stop-opacity="1" stop-color="rgb(23.829651%, 29.707336%, 45.84198%)" offset="0.445312"/><stop stop-opacity="1" stop-color="rgb(24.105835%, 29.989624%, 46.224976%)" offset="0.453125"/><stop stop-opacity="1" stop-color="rgb(24.380493%, 30.271912%, 46.606445%)" offset="0.460937"/><stop stop-opacity="1" stop-color="rgb(24.655151%, 30.554199%, 46.989441%)" offset="0.46875"/><stop stop-opacity="1" stop-color="rgb(24.931335%, 30.836487%, 47.370911%)" offset="0.476562"/><stop stop-opacity="1" stop-color="rgb(25.205994%, 31.118774%, 47.753906%)" offset="0.484375"/><stop stop-opacity="1" stop-color="rgb(25.482178%, 31.401062%, 48.135376%)" offset="0.492187"/><stop stop-opacity="1" stop-color="rgb(25.756836%, 31.68335%, 48.518372%)" offset="0.5"/><stop stop-opacity="1" stop-color="rgb(26.03302%, 31.965637%, 48.899841%)" offset="0.507812"/><stop stop-opacity="1" stop-color="rgb(26.307678%, 32.247925%, 49.282837%)" offset="0.515625"/><stop stop-opacity="1" stop-color="rgb(26.582336%, 32.528687%, 49.664307%)" offset="0.523437"/><stop stop-opacity="1" stop-color="rgb(26.858521%, 32.810974%, 50.045776%)" offset="0.53125"/><stop stop-opacity="1" stop-color="rgb(27.133179%, 33.093262%, 50.428772%)" offset="0.539062"/><stop stop-opacity="1" stop-color="rgb(27.409363%, 33.375549%, 50.810242%)" offset="0.546875"/><stop stop-opacity="1" stop-color="rgb(27.684021%, 33.657837%, 51.193237%)" offset="0.554687"/><stop stop-opacity="1" stop-color="rgb(27.960205%, 33.940125%, 51.574707%)" offset="0.5625"/><stop stop-opacity="1" stop-color="rgb(28.234863%, 34.222412%, 51.957703%)" offset="0.570312"/><stop stop-opacity="1" stop-color="rgb(28.509521%, 34.5047%, 52.339172%)" offset="0.578125"/><stop stop-opacity="1" stop-color="rgb(28.785706%, 34.786987%, 52.722168%)" offset="0.585938"/><stop stop-opacity="1" stop-color="rgb(29.060364%, 35.069275%, 53.103638%)" offset="0.59375"/><stop stop-opacity="1" stop-color="rgb(29.336548%, 35.351562%, 53.486633%)" offset="0.601562"/><stop stop-opacity="1" stop-color="rgb(29.611206%, 35.63385%, 53.868103%)" offset="0.609375"/><stop stop-opacity="1" stop-color="rgb(29.88739%, 35.914612%, 54.251099%)" offset="0.617188"/><stop stop-opacity="1" stop-color="rgb(30.162048%, 36.196899%, 54.632568%)" offset="0.625"/><stop stop-opacity="1" stop-color="rgb(30.436707%, 36.479187%, 55.015564%)" offset="0.632812"/><stop stop-opacity="1" stop-color="rgb(30.712891%, 36.761475%, 55.397034%)" offset="0.640625"/><stop stop-opacity="1" stop-color="rgb(30.987549%, 37.043762%, 55.780029%)" offset="0.648437"/><stop stop-opacity="1" stop-color="rgb(31.263733%, 37.32605%, 56.161499%)" offset="0.65625"/><stop stop-opacity="1" stop-color="rgb(31.538391%, 37.608337%, 56.544495%)" offset="0.664062"/><stop stop-opacity="1" stop-color="rgb(31.814575%, 37.890625%, 56.925964%)" offset="0.671875"/><stop stop-opacity="1" stop-color="rgb(32.089233%, 38.172913%, 57.30896%)" offset="0.679687"/><stop stop-opacity="1" stop-color="rgb(32.365417%, 38.4552%, 57.69043%)" offset="0.6875"/><stop stop-opacity="1" stop-color="rgb(32.640076%, 38.737488%, 58.073425%)" offset="0.695312"/><stop stop-opacity="1" stop-color="rgb(32.914734%, 39.019775%, 58.454895%)" offset="0.703125"/><stop stop-opacity="1" stop-color="rgb(33.190918%, 39.300537%, 58.836365%)" offset="0.710937"/><stop stop-opacity="1" stop-color="rgb(33.465576%, 39.582825%, 59.21936%)" offset="0.71875"/><stop stop-opacity="1" stop-color="rgb(33.74176%, 39.865112%, 59.60083%)" offset="0.726562"/><stop stop-opacity="1" stop-color="rgb(34.016418%, 40.1474%, 59.983826%)" offset="0.734375"/><stop stop-opacity="1" stop-color="rgb(34.292603%, 40.429688%, 60.365295%)" offset="0.742187"/><stop stop-opacity="1" stop-color="rgb(34.567261%, 40.711975%, 60.748291%)" offset="0.75"/><stop stop-opacity="1" stop-color="rgb(34.841919%, 40.994263%, 61.129761%)" offset="0.757812"/><stop stop-opacity="1" stop-color="rgb(35.118103%, 41.27655%, 61.512756%)" offset="0.765625"/><stop stop-opacity="1" stop-color="rgb(35.392761%, 41.558838%, 61.894226%)" offset="0.773438"/><stop stop-opacity="1" stop-color="rgb(35.668945%, 41.841125%, 62.277222%)" offset="0.78125"/><stop stop-opacity="1" stop-color="rgb(35.943604%, 42.123413%, 62.658691%)" offset="0.789062"/><stop stop-opacity="1" stop-color="rgb(36.219788%, 42.405701%, 63.041687%)" offset="0.796875"/><stop stop-opacity="1" stop-color="rgb(36.494446%, 42.686462%, 63.423157%)" offset="0.804687"/><stop stop-opacity="1" stop-color="rgb(36.769104%, 42.96875%, 63.806152%)" offset="0.8125"/><stop stop-opacity="1" stop-color="rgb(37.045288%, 43.251038%, 64.187622%)" offset="0.820312"/><stop stop-opacity="1" stop-color="rgb(37.319946%, 43.533325%, 64.570618%)" offset="0.828125"/><stop stop-opacity="1" stop-color="rgb(37.59613%, 43.815613%, 64.952087%)" offset="0.835937"/><stop stop-opacity="1" stop-color="rgb(37.870789%, 44.0979%, 65.335083%)" offset="0.84375"/><stop stop-opacity="1" stop-color="rgb(38.146973%, 44.380188%, 65.716553%)" offset="0.851562"/><stop stop-opacity="1" stop-color="rgb(38.421631%, 44.662476%, 66.099548%)" offset="0.859375"/><stop stop-opacity="1" stop-color="rgb(38.696289%, 44.944763%, 66.481018%)" offset="0.867187"/><stop stop-opacity="1" stop-color="rgb(38.972473%, 45.227051%, 66.864014%)" offset="0.875"/><stop stop-opacity="1" stop-color="rgb(39.247131%, 45.509338%, 67.245483%)" offset="0.882812"/><stop stop-opacity="1" stop-color="rgb(39.523315%, 45.791626%, 67.626953%)" offset="0.890625"/><stop stop-opacity="1" stop-color="rgb(39.797974%, 46.072388%, 68.009949%)" offset="0.898437"/><stop stop-opacity="1" stop-color="rgb(40.074158%, 46.354675%, 68.391418%)" offset="0.90625"/><stop stop-opacity="1" stop-color="rgb(40.348816%, 46.636963%, 68.774414%)" offset="0.914062"/><stop stop-opacity="1" stop-color="rgb(40.625%, 46.91925%, 69.155884%)" offset="0.921875"/><stop stop-opacity="1" stop-color="rgb(40.78064%, 47.079468%, 69.372559%)" offset="0.9375"/><stop stop-opacity="1" stop-color="rgb(40.79895%, 47.099304%, 69.398499%)" offset="1"/></linearGradient><clipPath id="49ab0751e1"><path d="M 68 34 L 199 34 L 199 205 L 68 205 Z M 68 34 " clip-rule="nonzero"/></clipPath><clipPath id="4481e27f17"><path d="M 196.117188 87.164062 C 191.628906 64.375 178.914062 43.910156 155.257812 36.820312 C 119.828125 26.179688 75.011719 53.007812 69.386719 89.894531 C 64.324219 123 76.515625 168.921875 102.332031 191.203125 C 116.984375 203.84375 138.894531 207.875 156.867188 200.785156 C 167.335938 196.664062 171.078125 188.921875 175.855469 179.550781 C 183.214844 165.117188 190.179688 150.382812 194.457031 134.75 C 196.527344 126.984375 197.699219 119.082031 197.980469 111.050781 C 198.261719 103.019531 197.640625 95.058594 196.117188 87.164062 Z M 156.769531 162.78125 C 148.183594 166.246094 135.480469 162.4375 127.824219 158.292969 C 126.734375 157.699219 125.679688 157.066406 124.652344 156.394531 C 109.109375 146.175781 100.972656 128.285156 95.992188 110.996094 C 95.230469 108.5 94.597656 105.972656 94.097656 103.410156 C 94.152344 103.648438 98.894531 101.300781 99.25 101.121094 C 101.589844 99.851562 103.769531 98.355469 105.796875 96.632812 C 113.171875 90.605469 117.710938 82.3125 124.285156 75.550781 C 129.09375 70.605469 134.757812 66.230469 141.488281 64.503906 C 152.46875 61.710938 163.476562 70.71875 168.636719 79.753906 C 174.53125 90.058594 177.929688 101.25 177.246094 113.148438 C 176.894531 120.035156 175.898438 126.824219 174.253906 133.523438 C 171.882812 142.902344 167.941406 151.847656 161.539062 158.953125 C 160.558594 160.097656 159.449219 161.09375 158.203125 161.945312 C 157.753906 162.269531 157.273438 162.550781 156.769531 162.78125 Z M 156.769531 162.78125 " clip-rule="nonzero"/></clipPath><linearGradient x1="85.999999" gradientTransform="matrix(0.747942, 0, 0, 0.747942, 0, 0.00000998182)" y1="159.589996" x2="265.075647" gradientUnits="userSpaceOnUse" y2="159.589996" id="fe151fa81b"><stop stop-opacity="1" stop-color="rgb(8.599854%, 14.099121%, 24.699402%)" offset="0"/><stop stop-opacity="1" stop-color="rgb(8.628845%, 14.129639%, 24.740601%)" offset="0.03125"/><stop stop-opacity="1" stop-color="rgb(8.789062%, 14.294434%, 24.963379%)" offset="0.0390625"/><stop stop-opacity="1" stop-color="rgb(9.048462%, 14.559937%, 25.323486%)" offset="0.046875"/><stop stop-opacity="1" stop-color="rgb(9.309387%, 14.825439%, 25.683594%)" offset="0.0546875"/><stop stop-opacity="1" stop-color="rgb(9.568787%, 15.092468%, 26.045227%)" offset="0.0625"/><stop stop-opacity="1" stop-color="rgb(9.828186%, 15.357971%, 26.405334%)" offset="0.0703125"/><stop stop-opacity="1" stop-color="rgb(10.087585%, 15.625%, 26.765442%)" offset="0.078125"/><stop stop-opacity="1" stop-color="rgb(10.346985%, 15.890503%, 27.125549%)" offset="0.0859375"/><stop stop-opacity="1" stop-color="rgb(10.606384%, 16.156006%, 27.485657%)" offset="0.09375"/><stop stop-opacity="1" stop-color="rgb(10.865784%, 16.423035%, 27.845764%)" offset="0.101562"/><stop stop-opacity="1" stop-color="rgb(11.126709%, 16.688538%, 28.207397%)" offset="0.109375"/><stop stop-opacity="1" stop-color="rgb(11.386108%, 16.954041%, 28.567505%)" offset="0.117187"/><stop stop-opacity="1" stop-color="rgb(11.645508%, 17.221069%, 28.927612%)" offset="0.125"/><stop stop-opacity="1" stop-color="rgb(11.904907%, 17.486572%, 29.28772%)" offset="0.132812"/><stop stop-opacity="1" stop-color="rgb(12.164307%, 17.753601%, 29.647827%)" offset="0.140625"/><stop stop-opacity="1" stop-color="rgb(12.423706%, 18.019104%, 30.00946%)" offset="0.148438"/><stop stop-opacity="1" stop-color="rgb(12.683105%, 18.284607%, 30.369568%)" offset="0.15625"/><stop stop-opacity="1" stop-color="rgb(12.944031%, 18.551636%, 30.729675%)" offset="0.164062"/><stop stop-opacity="1" stop-color="rgb(13.20343%, 18.817139%, 31.089783%)" offset="0.171875"/><stop stop-opacity="1" stop-color="rgb(13.46283%, 19.082642%, 31.44989%)" offset="0.179688"/><stop stop-opacity="1" stop-color="rgb(13.722229%, 19.34967%, 31.811523%)" offset="0.1875"/><stop stop-opacity="1" stop-color="rgb(13.981628%, 19.615173%, 32.171631%)" offset="0.195312"/><stop stop-opacity="1" stop-color="rgb(14.241028%, 19.880676%, 32.531738%)" offset="0.203125"/><stop stop-opacity="1" stop-color="rgb(14.500427%, 20.147705%, 32.891846%)" offset="0.210938"/><stop stop-opacity="1" stop-color="rgb(14.761353%, 20.413208%, 33.251953%)" offset="0.21875"/><stop stop-opacity="1" stop-color="rgb(15.020752%, 20.680237%, 33.613586%)" offset="0.226562"/><stop stop-opacity="1" stop-color="rgb(15.280151%, 20.94574%, 33.973694%)" offset="0.234375"/><stop stop-opacity="1" stop-color="rgb(15.539551%, 21.211243%, 34.333801%)" offset="0.242187"/><stop stop-opacity="1" stop-color="rgb(15.79895%, 21.478271%, 34.693909%)" offset="0.25"/><stop stop-opacity="1" stop-color="rgb(16.05835%, 21.743774%, 35.054016%)" offset="0.257812"/><stop stop-opacity="1" stop-color="rgb(16.317749%, 22.009277%, 35.415649%)" offset="0.265625"/><stop stop-opacity="1" stop-color="rgb(16.578674%, 22.276306%, 35.775757%)" offset="0.273437"/><stop stop-opacity="1" stop-color="rgb(16.838074%, 22.541809%, 36.135864%)" offset="0.28125"/><stop stop-opacity="1" stop-color="rgb(17.097473%, 22.808838%, 36.495972%)" offset="0.289062"/><stop stop-opacity="1" stop-color="rgb(17.356873%, 23.074341%, 36.856079%)" offset="0.296875"/><stop stop-opacity="1" stop-color="rgb(17.616272%, 23.339844%, 37.216187%)" offset="0.304687"/><stop stop-opacity="1" stop-color="rgb(17.875671%, 23.606873%, 37.57782%)" offset="0.3125"/><stop stop-opacity="1" stop-color="rgb(18.135071%, 23.872375%, 37.937927%)" offset="0.320312"/><stop stop-opacity="1" stop-color="rgb(18.395996%, 24.137878%, 38.298035%)" offset="0.328125"/><stop stop-opacity="1" stop-color="rgb(18.655396%, 24.404907%, 38.658142%)" offset="0.335938"/><stop stop-opacity="1" stop-color="rgb(18.914795%, 24.67041%, 39.01825%)" offset="0.34375"/><stop stop-opacity="1" stop-color="rgb(19.174194%, 24.937439%, 39.379883%)" offset="0.351562"/><stop stop-opacity="1" stop-color="rgb(19.433594%, 25.202942%, 39.73999%)" offset="0.359375"/><stop stop-opacity="1" stop-color="rgb(19.692993%, 25.468445%, 40.100098%)" offset="0.367188"/><stop stop-opacity="1" stop-color="rgb(19.952393%, 25.735474%, 40.460205%)" offset="0.375"/><stop stop-opacity="1" stop-color="rgb(20.213318%, 26.000977%, 40.820312%)" offset="0.382812"/><stop stop-opacity="1" stop-color="rgb(20.472717%, 26.266479%, 41.181946%)" offset="0.390625"/><stop stop-opacity="1" stop-color="rgb(20.732117%, 26.533508%, 41.542053%)" offset="0.398438"/><stop stop-opacity="1" stop-color="rgb(20.991516%, 26.799011%, 41.902161%)" offset="0.40625"/><stop stop-opacity="1" stop-color="rgb(21.250916%, 27.064514%, 42.262268%)" offset="0.414062"/><stop stop-opacity="1" stop-color="rgb(21.510315%, 27.331543%, 42.622375%)" offset="0.421875"/><stop stop-opacity="1" stop-color="rgb(21.769714%, 27.597046%, 42.984009%)" offset="0.429688"/><stop stop-opacity="1" stop-color="rgb(22.03064%, 27.864075%, 43.344116%)" offset="0.4375"/><stop stop-opacity="1" stop-color="rgb(22.290039%, 28.129578%, 43.704224%)" offset="0.445312"/><stop stop-opacity="1" stop-color="rgb(22.549438%, 28.395081%, 44.064331%)" offset="0.453125"/><stop stop-opacity="1" stop-color="rgb(22.808838%, 28.662109%, 44.424438%)" offset="0.460937"/><stop stop-opacity="1" stop-color="rgb(23.068237%, 28.927612%, 44.784546%)" offset="0.46875"/><stop stop-opacity="1" stop-color="rgb(23.327637%, 29.193115%, 45.146179%)" offset="0.476562"/><stop stop-opacity="1" stop-color="rgb(23.587036%, 29.460144%, 45.506287%)" offset="0.484375"/><stop stop-opacity="1" stop-color="rgb(23.847961%, 29.725647%, 45.866394%)" offset="0.492187"/><stop stop-opacity="1" stop-color="rgb(24.107361%, 29.992676%, 46.226501%)" offset="0.5"/><stop stop-opacity="1" stop-color="rgb(24.36676%, 30.258179%, 46.586609%)" offset="0.507812"/><stop stop-opacity="1" stop-color="rgb(24.62616%, 30.523682%, 46.948242%)" offset="0.515625"/><stop stop-opacity="1" stop-color="rgb(24.885559%, 30.79071%, 47.30835%)" offset="0.523437"/><stop stop-opacity="1" stop-color="rgb(25.144958%, 31.056213%, 47.668457%)" offset="0.53125"/><stop stop-opacity="1" stop-color="rgb(25.404358%, 31.321716%, 48.028564%)" offset="0.539062"/><stop stop-opacity="1" stop-color="rgb(25.665283%, 31.588745%, 48.388672%)" offset="0.546875"/><stop stop-opacity="1" stop-color="rgb(25.924683%, 31.854248%, 48.750305%)" offset="0.554687"/><stop stop-opacity="1" stop-color="rgb(26.184082%, 32.119751%, 49.110413%)" offset="0.5625"/><stop stop-opacity="1" stop-color="rgb(26.443481%, 32.38678%, 49.47052%)" offset="0.570312"/><stop stop-opacity="1" stop-color="rgb(26.702881%, 32.652283%, 49.830627%)" offset="0.578125"/><stop stop-opacity="1" stop-color="rgb(26.96228%, 32.919312%, 50.190735%)" offset="0.585937"/><stop stop-opacity="1" stop-color="rgb(27.22168%, 33.184814%, 50.552368%)" offset="0.59375"/><stop stop-opacity="1" stop-color="rgb(27.482605%, 33.450317%, 50.912476%)" offset="0.601562"/><stop stop-opacity="1" stop-color="rgb(27.742004%, 33.717346%, 51.272583%)" offset="0.609375"/><stop stop-opacity="1" stop-color="rgb(28.001404%, 33.982849%, 51.63269%)" offset="0.617188"/><stop stop-opacity="1" stop-color="rgb(28.260803%, 34.248352%, 51.992798%)" offset="0.625"/><stop stop-opacity="1" stop-color="rgb(28.520203%, 34.515381%, 52.354431%)" offset="0.632812"/><stop stop-opacity="1" stop-color="rgb(28.779602%, 34.780884%, 52.714539%)" offset="0.640625"/><stop stop-opacity="1" stop-color="rgb(29.039001%, 35.047913%, 53.074646%)" offset="0.648437"/><stop stop-opacity="1" stop-color="rgb(29.299927%, 35.313416%, 53.434753%)" offset="0.65625"/><stop stop-opacity="1" stop-color="rgb(29.559326%, 35.578918%, 53.794861%)" offset="0.664062"/><stop stop-opacity="1" stop-color="rgb(29.818726%, 35.845947%, 54.154968%)" offset="0.671875"/><stop stop-opacity="1" stop-color="rgb(30.078125%, 36.11145%, 54.516602%)" offset="0.679687"/><stop stop-opacity="1" stop-color="rgb(30.337524%, 36.376953%, 54.876709%)" offset="0.6875"/><stop stop-opacity="1" stop-color="rgb(30.596924%, 36.643982%, 55.236816%)" offset="0.695312"/><stop stop-opacity="1" stop-color="rgb(30.856323%, 36.909485%, 55.596924%)" offset="0.703125"/><stop stop-opacity="1" stop-color="rgb(31.117249%, 37.176514%, 55.957031%)" offset="0.710937"/><stop stop-opacity="1" stop-color="rgb(31.376648%, 37.442017%, 56.318665%)" offset="0.71875"/><stop stop-opacity="1" stop-color="rgb(31.636047%, 37.70752%, 56.678772%)" offset="0.726562"/><stop stop-opacity="1" stop-color="rgb(31.895447%, 37.974548%, 57.038879%)" offset="0.734375"/><stop stop-opacity="1" stop-color="rgb(32.154846%, 38.240051%, 57.398987%)" offset="0.742188"/><stop stop-opacity="1" stop-color="rgb(32.414246%, 38.505554%, 57.759094%)" offset="0.75"/><stop stop-opacity="1" stop-color="rgb(32.673645%, 38.772583%, 58.120728%)" offset="0.757812"/><stop stop-opacity="1" stop-color="rgb(32.93457%, 39.038086%, 58.480835%)" offset="0.765625"/><stop stop-opacity="1" stop-color="rgb(33.19397%, 39.303589%, 58.840942%)" offset="0.773438"/><stop stop-opacity="1" stop-color="rgb(33.453369%, 39.570618%, 59.20105%)" offset="0.78125"/><stop stop-opacity="1" stop-color="rgb(33.712769%, 39.836121%, 59.561157%)" offset="0.789062"/><stop stop-opacity="1" stop-color="rgb(33.972168%, 40.103149%, 59.922791%)" offset="0.796875"/><stop stop-opacity="1" stop-color="rgb(34.231567%, 40.368652%, 60.282898%)" offset="0.804687"/><stop stop-opacity="1" stop-color="rgb(34.490967%, 40.634155%, 60.643005%)" offset="0.8125"/><stop stop-opacity="1" stop-color="rgb(34.751892%, 40.901184%, 61.003113%)" offset="0.820312"/><stop stop-opacity="1" stop-color="rgb(35.011292%, 41.166687%, 61.36322%)" offset="0.828125"/><stop stop-opacity="1" stop-color="rgb(35.270691%, 41.43219%, 61.723328%)" offset="0.835937"/><stop stop-opacity="1" stop-color="rgb(35.53009%, 41.699219%, 62.084961%)" offset="0.84375"/><stop stop-opacity="1" stop-color="rgb(35.78949%, 41.964722%, 62.445068%)" offset="0.851562"/><stop stop-opacity="1" stop-color="rgb(36.048889%, 42.23175%, 62.805176%)" offset="0.859375"/><stop stop-opacity="1" stop-color="rgb(36.308289%, 42.497253%, 63.165283%)" offset="0.867187"/><stop stop-opacity="1" stop-color="rgb(36.569214%, 42.762756%, 63.525391%)" offset="0.875"/><stop stop-opacity="1" stop-color="rgb(36.828613%, 43.029785%, 63.887024%)" offset="0.882812"/><stop stop-opacity="1" stop-color="rgb(37.088013%, 43.295288%, 64.247131%)" offset="0.890625"/><stop stop-opacity="1" stop-color="rgb(37.347412%, 43.560791%, 64.607239%)" offset="0.898437"/><stop stop-opacity="1" stop-color="rgb(37.606812%, 43.82782%, 64.967346%)" offset="0.90625"/><stop stop-opacity="1" stop-color="rgb(37.866211%, 44.093323%, 65.327454%)" offset="0.914062"/><stop stop-opacity="1" stop-color="rgb(38.12561%, 44.358826%, 65.689087%)" offset="0.921875"/><stop stop-opacity="1" stop-color="rgb(38.386536%, 44.625854%, 66.049194%)" offset="0.929688"/><stop stop-opacity="1" stop-color="rgb(38.645935%, 44.891357%, 66.409302%)" offset="0.9375"/><stop stop-opacity="1" stop-color="rgb(38.905334%, 45.158386%, 66.769409%)" offset="0.945312"/><stop stop-opacity="1" stop-color="rgb(39.164734%, 45.423889%, 67.129517%)" offset="0.953125"/><stop stop-opacity="1" stop-color="rgb(39.424133%, 45.689392%, 67.49115%)" offset="0.960937"/><stop stop-opacity="1" stop-color="rgb(39.683533%, 45.956421%, 67.851257%)" offset="0.96875"/><stop stop-opacity="1" stop-color="rgb(39.942932%, 46.221924%, 68.211365%)" offset="0.976563"/><stop stop-opacity="1" stop-color="rgb(40.202332%, 46.487427%, 68.571472%)" offset="0.984375"/><stop stop-opacity="1" stop-color="rgb(40.463257%, 46.754456%, 68.93158%)" offset="0.992188"/><stop stop-opacity="1" stop-color="rgb(40.69519%, 46.992493%, 69.255066%)" offset="1"/></linearGradient></defs><g clip-path="url(#fd6ec3f0e1)"><g clip-path="url(#ba280cfb88)"><path fill="url(#7e91210746)" d="M 67.417969 46.679688 L 67.417969 208.519531 L 202.984375 208.519531 L 202.984375 46.679688 Z M 67.417969 46.679688 " fill-rule="nonzero"/></g></g><path fill="#00214e" d="M 221.699219 210.867188 C 220.191406 212.027344 218.664062 213.152344 217.109375 214.25 C 215.558594 215.347656 213.984375 216.410156 212.390625 217.441406 C 210.792969 218.472656 209.175781 219.46875 207.539062 220.433594 C 205.902344 221.398438 204.246094 222.328125 202.570312 223.222656 C 200.894531 224.121094 199.203125 224.980469 197.492188 225.804688 C 195.78125 226.632812 194.050781 227.421875 192.308594 228.175781 C 190.566406 228.933594 188.808594 229.652344 187.035156 230.332031 C 185.261719 231.015625 183.472656 231.660156 181.671875 232.269531 C 179.875 232.875 178.0625 233.445312 176.238281 233.980469 C 174.414062 234.515625 172.582031 235.007812 170.738281 235.46875 C 168.894531 235.925781 167.039062 236.34375 165.179688 236.726562 C 163.316406 237.105469 161.449219 237.449219 159.574219 237.753906 C 157.699219 238.058594 155.816406 238.324219 153.929688 238.550781 C 152.042969 238.777344 150.152344 238.964844 148.257812 239.109375 C 146.367188 239.257812 144.46875 239.367188 142.570312 239.4375 C 140.671875 239.507812 138.773438 239.539062 136.871094 239.53125 C 134.972656 239.523438 133.074219 239.476562 131.175781 239.386719 C 129.277344 239.300781 127.382812 239.175781 125.488281 239.011719 C 123.597656 238.84375 121.707031 238.640625 119.824219 238.398438 C 117.9375 238.15625 116.058594 237.875 114.1875 237.554688 C 112.316406 237.234375 110.449219 236.875 108.589844 236.476562 C 106.734375 236.078125 104.886719 235.640625 103.046875 235.167969 C 101.203125 234.695312 99.375 234.183594 97.558594 233.632812 C 95.738281 233.082031 93.929688 232.496094 92.136719 231.871094 C 90.34375 231.25 88.5625 230.585938 86.792969 229.890625 C 85.027344 229.191406 83.273438 228.457031 81.539062 227.6875 C 79.800781 226.917969 78.082031 226.113281 76.375 225.273438 C 74.671875 224.429688 72.988281 223.554688 71.320312 222.644531 C 69.652344 221.734375 68.003906 220.789062 66.375 219.808594 C 64.746094 218.832031 63.140625 217.820312 61.554688 216.773438 C 59.964844 215.730469 58.402344 214.652344 56.859375 213.542969 C 55.316406 212.433594 53.796875 211.292969 52.304688 210.121094 L 88.699219 193.058594 C 89.8125 192.53125 90.898438 191.949219 91.953125 191.308594 L 92.789062 190.785156 C 93.089844 190.597656 93.378906 190.402344 93.671875 190.203125 C 98.332031 186.988281 101.988281 182.882812 104.644531 177.882812 C 107.636719 172.234375 108.625 166 108.667969 159.640625 C 108.667969 155.363281 108.4375 151.085938 108.390625 146.796875 C 108.363281 144.429688 108.335938 142.058594 108.316406 139.6875 L 109.8125 140.433594 L 113.703125 142.445312 L 136.355469 146.296875 L 159.632812 150.261719 L 160.335938 174.195312 L 160.6875 186.066406 L 169.265625 189.558594 L 176 192.28125 Z M 221.699219 210.867188 " fill-opacity="1" fill-rule="nonzero"/><path fill="#f2a196" d="M 160.320312 174.179688 C 156.558594 174.847656 152.773438 175.035156 148.964844 174.734375 C 145.15625 174.4375 141.445312 173.667969 137.832031 172.421875 C 121.691406 167 110.824219 153.917969 109.796875 140.441406 L 113.6875 142.453125 L 136.34375 146.304688 L 159.617188 150.269531 Z M 160.320312 174.179688 " fill-opacity="1" fill-rule="nonzero"/><path fill="#f2a196" d="M 102.332031 115.742188 C 102.332031 116.578125 102.25 117.40625 102.089844 118.222656 C 101.925781 119.042969 101.683594 119.839844 101.367188 120.609375 C 101.046875 121.382812 100.65625 122.113281 100.191406 122.808594 C 99.726562 123.503906 99.199219 124.144531 98.609375 124.734375 C 98.019531 125.324219 97.375 125.851562 96.683594 126.316406 C 95.988281 126.78125 95.253906 127.171875 94.484375 127.492188 C 93.710938 127.8125 92.917969 128.050781 92.097656 128.214844 C 91.28125 128.378906 90.453125 128.457031 89.617188 128.457031 C 88.785156 128.457031 87.957031 128.378906 87.136719 128.214844 C 86.320312 128.050781 85.523438 127.8125 84.753906 127.492188 C 83.980469 127.171875 83.25 126.78125 82.554688 126.316406 C 81.859375 125.851562 81.21875 125.324219 80.628906 124.734375 C 80.039062 124.144531 79.511719 123.503906 79.046875 122.808594 C 78.582031 122.113281 78.191406 121.382812 77.871094 120.609375 C 77.550781 119.839844 77.308594 119.042969 77.148438 118.222656 C 76.984375 117.40625 76.902344 116.578125 76.902344 115.742188 C 76.902344 114.910156 76.984375 114.082031 77.148438 113.261719 C 77.308594 112.445312 77.550781 111.648438 77.871094 110.878906 C 78.191406 110.105469 78.582031 109.375 79.046875 108.679688 C 79.511719 107.984375 80.039062 107.34375 80.628906 106.753906 C 81.21875 106.164062 81.859375 105.636719 82.554688 105.171875 C 83.25 104.707031 83.980469 104.316406 84.753906 103.996094 C 85.523438 103.675781 86.320312 103.4375 87.136719 103.273438 C 87.957031 103.109375 88.785156 103.027344 89.617188 103.027344 C 90.453125 103.027344 91.28125 103.109375 92.097656 103.273438 C 92.917969 103.4375 93.710938 103.675781 94.484375 103.996094 C 95.253906 104.316406 95.988281 104.707031 96.683594 105.171875 C 97.375 105.636719 98.019531 106.164062 98.609375 106.753906 C 99.199219 107.34375 99.726562 107.984375 100.191406 108.679688 C 100.65625 109.375 101.046875 110.105469 101.367188 110.878906 C 101.683594 111.648438 101.925781 112.445312 102.089844 113.261719 C 102.25 114.082031 102.332031 114.910156 102.332031 115.742188 Z M 102.332031 115.742188 " fill-opacity="1" fill-rule="nonzero"/><path fill="#e88870" d="M 106.820312 114.25 C 106.820312 115.082031 106.738281 115.910156 106.578125 116.730469 C 106.414062 117.546875 106.171875 118.34375 105.851562 119.113281 C 105.535156 119.886719 105.140625 120.617188 104.679688 121.3125 C 104.214844 122.007812 103.6875 122.648438 103.097656 123.238281 C 102.507812 123.828125 101.863281 124.355469 101.171875 124.820312 C 100.476562 125.285156 99.742188 125.675781 98.972656 125.996094 C 98.199219 126.316406 97.40625 126.554688 96.585938 126.71875 C 95.769531 126.882812 94.941406 126.964844 94.105469 126.964844 C 93.269531 126.964844 92.445312 126.882812 91.625 126.71875 C 90.804688 126.554688 90.011719 126.316406 89.238281 125.996094 C 88.46875 125.675781 87.734375 125.285156 87.042969 124.820312 C 86.347656 124.355469 85.707031 123.828125 85.113281 123.238281 C 84.523438 122.648438 83.996094 122.007812 83.535156 121.3125 C 83.070312 120.617188 82.679688 119.886719 82.359375 119.113281 C 82.039062 118.34375 81.796875 117.546875 81.636719 116.730469 C 81.472656 115.910156 81.390625 115.082031 81.390625 114.25 C 81.390625 113.414062 81.472656 112.585938 81.636719 111.765625 C 81.796875 110.949219 82.039062 110.152344 82.359375 109.382812 C 82.679688 108.609375 83.070312 107.878906 83.535156 107.183594 C 83.996094 106.488281 84.523438 105.847656 85.113281 105.257812 C 85.707031 104.667969 86.347656 104.140625 87.042969 103.675781 C 87.734375 103.210938 88.46875 102.820312 89.238281 102.5 C 90.011719 102.179688 90.804688 101.941406 91.625 101.777344 C 92.445312 101.613281 93.269531 101.53125 94.105469 101.53125 C 94.941406 101.53125 95.769531 101.613281 96.585938 101.777344 C 97.40625 101.941406 98.199219 102.179688 98.972656 102.5 C 99.742188 102.820312 100.476562 103.210938 101.171875 103.675781 C 101.863281 104.140625 102.507812 104.667969 103.097656 105.257812 C 103.6875 105.847656 104.214844 106.488281 104.679688 107.183594 C 105.140625 107.878906 105.535156 108.609375 105.851562 109.382812 C 106.171875 110.152344 106.414062 110.949219 106.578125 111.765625 C 106.738281 112.585938 106.820312 113.414062 106.820312 114.25 Z M 106.820312 114.25 " fill-opacity="1" fill-rule="nonzero"/><path fill="#f2a196" d="M 176.035156 96.484375 C 184.816406 126.910156 166.164062 163.703125 154.6875 163.703125 C 138.984375 163.703125 100.835938 151.152344 92.0625 120.726562 C 83.289062 90.300781 94.988281 60.210938 118.175781 53.515625 C 141.359375 46.820312 167.246094 66.066406 176.035156 96.484375 Z M 176.035156 96.484375 " fill-opacity="1" fill-rule="nonzero"/><path stroke-linecap="butt" transform="matrix(0.747942, 0, 0, 0.747942, 0, 0.00000998182)" fill="none" stroke-linejoin="miter" d="M 177.779612 176.050896 C 180.182039 178.735347 182.976166 180.907977 186.172439 182.57923 C 189.363489 184.245261 192.747778 185.30024 196.320083 185.738944 " stroke="#00214e" stroke-width="1" stroke-opacity="1" stroke-miterlimit="10"/><path fill="#ff2609" d="M 179.773438 78.347656 C 176.65625 70.777344 168.285156 67.039062 160.589844 64.234375 C 156.433594 62.738281 152.167969 61.242188 147.742188 61.144531 C 143.605469 61.15625 139.628906 61.964844 135.820312 63.574219 C 129.183594 66.179688 122.355469 70.066406 117.261719 75.070312 C 114.785156 77.5 112.535156 80.050781 109.976562 82.484375 C 108.570312 83.828125 107.21875 85.234375 105.929688 86.695312 C 104.949219 87.808594 103.769531 90.132812 102.542969 90.882812 C 125.378906 77.039062 153.722656 71.914062 179.773438 78.347656 Z M 179.773438 78.347656 " fill-opacity="1" fill-rule="nonzero"/><path stroke-linecap="butt" transform="matrix(0.747942, 0, 0, 0.747942, 0, 0.00000998182)" fill="none" stroke-linejoin="miter" d="M 198.398704 130.911378 C 198.398704 131.109839 203.187891 139.47133 205.720885 148.501323 C 206.895985 153.347959 207.428697 158.262489 207.329466 163.250137 L 193.818425 163.250137 " stroke="#00214e" stroke-width="1" stroke-opacity="1" stroke-miterlimit="10"/><path stroke-linecap="butt" transform="matrix(0.747942, 0, 0, 0.747942, 0, 0.00000998182)" fill="none" stroke-linejoin="miter" d="M 210.807763 122.398429 C 212.557357 121.505353 214.380068 120.784625 216.265451 120.236245 C 218.150834 119.687865 220.072776 119.317055 222.026054 119.134262 C 223.984554 118.946246 225.943054 118.951468 227.896332 119.134262 C 229.854833 119.322278 231.771552 119.687865 233.662157 120.241467 " stroke="#00214e" stroke-width="1" stroke-opacity="1" stroke-miterlimit="10"/><path stroke-linecap="butt" transform="matrix(0.747942, 0, 0, 0.747942, 0, 0.00000998182)" fill="none" stroke-linejoin="miter" d="M 151.671496 126.378102 C 154.073923 125.155998 156.586026 124.205472 159.202583 123.531748 C 161.819139 122.863247 164.472254 122.481992 167.172374 122.393207 C 169.872493 122.309644 172.546499 122.518551 175.199614 123.019927 C 177.852729 123.526525 180.422282 124.309926 182.897826 125.380573 " stroke="#00214e" stroke-width="1" stroke-opacity="1" stroke-miterlimit="10"/><path fill="#00214e" d="M 126.558594 101.152344 C 131.121094 101.152344 131.121094 108.160156 126.558594 108.195312 L 126.351562 108.195312 C 121.789062 108.195312 121.789062 101.1875 126.351562 101.152344 Z M 126.558594 101.152344 " fill-opacity="1" fill-rule="nonzero"/><path fill="#00214e" d="M 164.046875 100.113281 C 168.285156 100.113281 168.285156 106.617188 164.046875 106.648438 L 163.859375 106.648438 C 159.625 106.648438 159.625 100.140625 163.859375 100.113281 Z M 164.046875 100.113281 " fill-opacity="1" fill-rule="nonzero"/><g clip-path="url(#49ab0751e1)"><g clip-path="url(#4481e27f17)"><path fill="url(#fe151fa81b)" d="M 64.324219 26.179688 L 64.324219 207.875 L 198.261719 207.875 L 198.261719 26.179688 Z M 64.324219 26.179688 " fill-rule="nonzero"/></g></g></svg>